<svg width="844" height="922" viewBox="0 0 844 922" fill="none" xmlns="http://www.w3.org/2000/svg">
<path d="M166.18 4.87508C167.109 3.15305 167.573 2.29203 168.286 1.62361C168.904 1.04351 169.682 0.579096 170.486 0.310042C171.413 2.60741e-05 172.426 2.60741e-05 174.453 2.60741e-05H834.4C837.76 2.60741e-05 839.44 2.60741e-05 840.724 0.653987C841.853 1.22923 842.771 2.14711 843.346 3.27608C844 4.55955 844 6.23971 844 9.60003V855.922C844 858.388 844 859.621 843.573 860.692C843.202 861.623 842.573 862.481 841.797 863.115C840.904 863.844 839.788 864.196 837.557 864.9C802.384 875.996 628.89 927.48 458.081 920.709C293.701 914.192 223.047 862.821 137.945 826.426C58.1927 792.32 15.5995 785.009 2.97976 703.808C-14.5147 591.24 49.7697 577.873 72.4587 447.084C92.7178 330.302 64.1158 323.505 88.876 208.666C109.264 114.105 154.702 26.1584 166.18 4.87508Z" fill="#FFFAEA"/>
</svg>
